#Comment line ignore any data following # character 
#Hierarchical Translation and Rotation (.htr) file 
[Header]	
#Header keywords are followed by a single value 
FileType HTR		#Single word string
DataType HTRS		#Translation followed by rotation and scale data
FileVersion 1		#integer
NumSegments 84		#integer
NumFrames 2		#integer
DataFrameRate 30		#integer, data frame rate in this file
EulerRotationOrder ZYX
CalibrationUnits mm
RotationUnits Degrees
GlobalAxisofGravity Y
BoneLengthAxis Y
ScaleFactor 1.00
[SegmentNames&Hierarchy]
#CHILD	PARENT
MASTER GLOBAL
root MASTER
chest root
L_mid_tent01 root
R_mid_tent01 root
spine01 root
Bip01_Neck chest
L_humerus chest
R_humerus chest
weapon_bone chest
Bip01_Head Bip01_Neck
eye_left_bone Bip01_Head
eye_right_bone Bip01_Head
L_forearm L_humerus
L_front_hand L_forearm
L_weapon_bone L_forearm
L_front_hand01_01 L_front_hand
L_front_hand02_01 L_front_hand
L_front_hand03_01 L_front_hand
L_front_hand01_02 L_front_hand01_01
L_front_hand02_02 L_front_hand02_01
L_front_hand03_02 L_front_hand03_01
R_forearm R_humerus
R_front_hand R_forearm
R_weapon_bone R_forearm
R_front_hand01_01 R_front_hand
R_front_hand02_01 R_front_hand
R_front_hand03_01 R_front_hand
R_front_hand01_02 R_front_hand01_01
R_front_hand02_02 R_front_hand02_01
R_front_hand03_02 R_front_hand03_01
null_rope01_connect L_mid_tent01
Rope1_Seg01 null_rope01_connect
Rope1_Seg02 Rope1_Seg01
Rope1_Seg03 Rope1_Seg02
Rope1_Seg04 Rope1_Seg03
Rope1_Seg05 Rope1_Seg04
Rope1_Seg06 Rope1_Seg05
Rope1_Seg07 Rope1_Seg06
Rope1_Seg09 Rope1_Seg07
L_mid_hand01 Rope1_Seg09
L_mid_hand02 Rope1_Seg09
L_mid_hand03 Rope1_Seg09
null_rope02_connect R_mid_tent01
Rope2_Seg01 null_rope02_connect
Rope2_Seg02 Rope2_Seg01
Rope2_Seg03 Rope2_Seg02
Rope2_Seg04 Rope2_Seg03
Rope2_Seg05 Rope2_Seg04
Rope2_Seg06 Rope2_Seg05
Rope2_Seg07 Rope2_Seg06
Rope2_Seg09 Rope2_Seg07
R_mid_hand01 Rope2_Seg09
R_mid_hand02 Rope2_Seg09
R_mid_hand03 Rope2_Seg09
spine02 spine01
spine03 spine02
pelvis spine03
null_rope03_connect pelvis
null_rope04_connect pelvis
Rope3_Seg01 null_rope03_connect
Rope3_Seg02 Rope3_Seg01
Rope3_Seg03 Rope3_Seg02
Rope3_Seg04 Rope3_Seg03
Rope3_Seg05 Rope3_Seg04
Rope3_Seg06 Rope3_Seg05
Rope3_Seg07 Rope3_Seg06
Rope3_Seg08 Rope3_Seg07
Rope3_Seg09 Rope3_Seg08
R_rear_hand01 Rope3_Seg09
R_rear_hand02 Rope3_Seg09
R_rear_hand03 Rope3_Seg09
Rope4_Seg01 null_rope04_connect
Rope4_Seg02 Rope4_Seg01
Rope4_Seg03 Rope4_Seg02
Rope4_Seg04 Rope4_Seg03
Rope4_Seg05 Rope4_Seg04
Rope4_Seg06 Rope4_Seg05
Rope4_Seg07 Rope4_Seg06
Rope4_Seg08 Rope4_Seg07
Rope4_Seg09 Rope4_Seg08
L_rear_hand01 Rope4_Seg09
L_rear_hand02 Rope4_Seg09
L_rear_hand03 Rope4_Seg09
[BasePosition]
#SegmentName Tx, Ty, Tz, Rx, Ry, Rz, BoneLength
MASTER 0.000000 0.000000 0.000000 -90.000000 0.000000 0.000000 10.000000 
root 0.000000 0.000000 0.000000 0.000000 0.000000 0.000000 10.000000 
chest 0.000000 0.000000 0.000000 0.000000 0.000000 0.000000 10.000000 
L_mid_tent01 0.000000 0.000000 0.000000 0.000000 0.000000 0.000000 10.000000 
R_mid_tent01 0.000000 0.000000 0.000000 0.000000 0.000000 0.000000 10.000000 
spine01 0.000000 0.000000 0.000000 0.000000 0.000000 0.000000 10.000000 
Bip01_Neck 0.000000 0.000000 0.000000 0.000000 0.000000 0.000000 10.000000 
L_humerus 0.000000 0.000000 0.000000 0.000000 0.000000 0.000000 10.000000 
R_humerus 0.000000 0.000000 0.000000 0.000000 0.000000 0.000000 10.000000 
weapon_bone 0.000000 0.000000 0.000000 0.000000 0.000000 0.000000 10.000000 
Bip01_Head 0.000000 0.000000 0.000000 0.000000 0.000000 0.000000 10.000000 
eye_left_bone 0.000000 0.000000 0.000000 0.000000 0.000000 0.000000 10.000000 
eye_right_bone 0.000000 0.000000 0.000000 0.000000 0.000000 0.000000 10.000000 
L_forearm 0.000000 0.000000 0.000000 0.000000 0.000000 0.000000 10.000000 
L_front_hand 0.000000 0.000000 0.000000 0.000000 0.000000 0.000000 10.000000 
L_weapon_bone 0.000000 0.000000 0.000000 0.000000 0.000000 0.000000 10.000000 
L_front_hand01_01 0.000000 0.000000 0.000000 0.000000 0.000000 0.000000 10.000000 
L_front_hand02_01 0.000000 0.000000 0.000000 0.000000 0.000000 0.000000 10.000000 
L_front_hand03_01 0.000000 0.000000 0.000000 0.000000 0.000000 0.000000 10.000000 
L_front_hand01_02 0.000000 0.000000 0.000000 0.000000 0.000000 0.000000 10.000000 
L_front_hand02_02 0.000000 0.000000 0.000000 0.000000 0.000000 0.000000 10.000000 
L_front_hand03_02 0.000000 0.000000 0.000000 0.000000 0.000000 0.000000 10.000000 
R_forearm 0.000000 0.000000 0.000000 0.000000 0.000000 0.000000 10.000000 
R_front_hand 0.000000 0.000000 0.000000 0.000000 0.000000 0.000000 10.000000 
R_weapon_bone 0.000000 0.000000 0.000000 0.000000 0.000000 0.000000 10.000000 
R_front_hand01_01 0.000000 0.000000 0.000000 0.000000 0.000000 0.000000 10.000000 
R_front_hand02_01 0.000000 0.000000 0.000000 0.000000 0.000000 0.000000 10.000000 
R_front_hand03_01 0.000000 0.000000 0.000000 0.000000 0.000000 0.000000 10.000000 
R_front_hand01_02 0.000000 0.000000 0.000000 0.000000 0.000000 0.000000 10.000000 
R_front_hand02_02 0.000000 0.000000 0.000000 0.000000 0.000000 0.000000 10.000000 
R_front_hand03_02 0.000000 0.000000 0.000000 0.000000 0.000000 0.000000 10.000000 
null_rope01_connect 0.000000 0.000000 0.000000 0.000000 0.000000 0.000000 10.000000 
Rope1_Seg01 0.000000 0.000000 0.000000 0.000000 0.000000 0.000000 10.000000 
Rope1_Seg02 0.000000 0.000000 0.000000 0.000000 0.000000 0.000000 10.000000 
Rope1_Seg03 0.000000 0.000000 0.000000 0.000000 0.000000 0.000000 10.000000 
Rope1_Seg04 0.000000 0.000000 0.000000 0.000000 0.000000 0.000000 10.000000 
Rope1_Seg05 0.000000 0.000000 0.000000 0.000000 0.000000 0.000000 10.000000 
Rope1_Seg06 0.000000 0.000000 0.000000 0.000000 0.000000 0.000000 10.000000 
Rope1_Seg07 0.000000 0.000000 0.000000 0.000000 0.000000 0.000000 10.000000 
Rope1_Seg09 0.000000 0.000000 0.000000 0.000000 0.000000 0.000000 10.000000 
L_mid_hand01 0.000000 0.000000 0.000000 0.000000 0.000000 0.000000 10.000000 
L_mid_hand02 0.000000 0.000000 0.000000 0.000000 0.000000 0.000000 10.000000 
L_mid_hand03 0.000000 0.000000 0.000000 0.000000 0.000000 0.000000 10.000000 
null_rope02_connect 0.000000 0.000000 0.000000 0.000000 0.000000 0.000000 10.000000 
Rope2_Seg01 0.000000 0.000000 0.000000 0.000000 0.000000 0.000000 10.000000 
Rope2_Seg02 0.000000 0.000000 0.000000 0.000000 0.000000 0.000000 10.000000 
Rope2_Seg03 0.000000 0.000000 0.000000 0.000000 0.000000 0.000000 10.000000 
Rope2_Seg04 0.000000 0.000000 0.000000 0.000000 0.000000 0.000000 10.000000 
Rope2_Seg05 0.000000 0.000000 0.000000 0.000000 0.000000 0.000000 10.000000 
Rope2_Seg06 0.000000 0.000000 0.000000 0.000000 0.000000 0.000000 10.000000 
Rope2_Seg07 0.000000 0.000000 0.000000 0.000000 0.000000 0.000000 10.000000 
Rope2_Seg09 0.000000 0.000000 0.000000 0.000000 0.000000 0.000000 10.000000 
R_mid_hand01 0.000000 0.000000 0.000000 0.000000 0.000000 0.000000 10.000000 
R_mid_hand02 0.000000 0.000000 0.000000 0.000000 0.000000 0.000000 10.000000 
R_mid_hand03 0.000000 0.000000 0.000000 0.000000 0.000000 0.000000 10.000000 
spine02 0.000000 0.000000 0.000000 0.000000 0.000000 0.000000 10.000000 
spine03 0.000000 0.000000 0.000000 0.000000 0.000000 0.000000 10.000000 
pelvis 0.000000 0.000000 0.000000 0.000000 0.000000 0.000000 10.000000 
null_rope03_connect 0.000000 0.000000 0.000000 0.000000 0.000000 0.000000 10.000000 
null_rope04_connect 0.000000 0.000000 0.000000 0.000000 0.000000 0.000000 10.000000 
Rope3_Seg01 0.000000 0.000000 0.000000 0.000000 0.000000 0.000000 10.000000 
Rope3_Seg02 0.000000 0.000000 0.000000 0.000000 0.000000 0.000000 10.000000 
Rope3_Seg03 0.000000 0.000000 0.000000 0.000000 0.000000 0.000000 10.000000 
Rope3_Seg04 0.000000 0.000000 0.000000 0.000000 0.000000 0.000000 10.000000 
Rope3_Seg05 0.000000 0.000000 0.000000 0.000000 0.000000 0.000000 10.000000 
Rope3_Seg06 0.000000 0.000000 0.000000 0.000000 0.000000 0.000000 10.000000 
Rope3_Seg07 0.000000 0.000000 0.000000 0.000000 0.000000 0.000000 10.000000 
Rope3_Seg08 0.000000 0.000000 0.000000 0.000000 0.000000 0.000000 10.000000 
Rope3_Seg09 0.000000 0.000000 0.000000 0.000000 0.000000 0.000000 10.000000 
R_rear_hand01 0.000000 0.000000 0.000000 0.000000 0.000000 0.000000 10.000000 
R_rear_hand02 0.000000 0.000000 0.000000 0.000000 0.000000 0.000000 10.000000 
R_rear_hand03 0.000000 0.000000 0.000000 0.000000 0.000000 0.000000 10.000000 
Rope4_Seg01 0.000000 0.000000 0.000000 0.000000 0.000000 0.000000 10.000000 
Rope4_Seg02 0.000000 0.000000 0.000000 0.000000 0.000000 0.000000 10.000000 
Rope4_Seg03 0.000000 0.000000 0.000000 0.000000 0.000000 0.000000 10.000000 
Rope4_Seg04 0.000000 0.000000 0.000000 0.000000 0.000000 0.000000 10.000000 
Rope4_Seg05 0.000000 0.000000 0.000000 0.000000 0.000000 0.000000 10.000000 
Rope4_Seg06 0.000000 0.000000 0.000000 0.000000 0.000000 0.000000 10.000000 
Rope4_Seg07 0.000000 0.000000 0.000000 0.000000 0.000000 0.000000 10.000000 
Rope4_Seg08 0.000000 0.000000 0.000000 0.000000 0.000000 0.000000 10.000000 
Rope4_Seg09 0.000000 0.000000 0.000000 0.000000 0.000000 0.000000 10.000000 
L_rear_hand01 0.000000 0.000000 0.000000 0.000000 0.000000 0.000000 10.000000 
L_rear_hand02 0.000000 0.000000 0.000000 0.000000 0.000000 0.000000 10.000000 
L_rear_hand03 0.000000 0.000000 0.000000 0.000000 0.000000 0.000000 10.000000 
#Beginning of Data. Separated by tabs
#Fr	Tx	Ty	Tz	Rx	Ry	Rz	SF
[MASTER]
20 0.000000 0.000000 0.000000 0.001660 0.001660 0.001660 0.000000
21 0.000000 0.000000 0.000000 0.001660 0.001660 0.001660 0.000000
[root]
20 -22.899811 -37.806335 1240.496460 -89.398430 -41.939289 -90.019524 1241.283813
21 -23.802900 -30.072123 1250.426514 -89.473373 -41.069088 -89.861946 1251.014648
[chest]
20 -84.512650 -34.090519 0.000000 1.966052 -1.953094 -129.232758 91.129311
21 -84.512650 -34.090519 0.000000 1.902662 -1.900343 -130.384506 91.129311
[L_mid_tent01]
20 27.387815 22.126972 -250.483093 -13.963249 -9.877865 56.307213 252.945587
21 27.382303 22.130127 -250.447784 -13.418180 -9.045156 53.916935 252.910309
[R_mid_tent01]
20 23.228794 24.509907 226.238495 -171.253616 3.312215 57.860275 228.744751
21 23.228794 24.509907 226.238495 -171.436691 2.186982 55.944756 228.744751
[spine01]
20 -0.361383 -0.195265 0.000000 0.001934 0.001330 20.949387 0.410763
21 -0.361383 -0.195265 0.000000 0.001932 0.001333 20.803600 0.410763
[Bip01_Neck]
20 165.484543 71.581718 0.000119 175.896118 1.177290 24.871183 180.302734
21 165.484543 71.581718 0.000119 175.896118 1.177290 24.871180 180.302734
[L_humerus]
20 -13.983130 -135.272980 -120.471481 -84.659592 -4.359037 -78.564957 181.680161
21 -13.983130 -135.272980 -120.471481 -81.704933 -5.108948 -75.753571 181.680161
[R_humerus]
20 -13.983309 -135.273102 125.287651 93.472786 -2.546275 -87.462723 184.909012
21 -13.983309 -135.273102 125.287651 91.418007 -1.587479 -71.086365 184.909012
[weapon_bone]
20 235.964890 -300.705902 0.000000 0.000000 -89.951546 -128.212341 382.234833
21 235.964890 -300.705902 0.000000 0.000000 -89.951546 -128.212341 382.234833
[Bip01_Head]
20 102.819786 23.735542 5.410299 3.150732 3.423701 -20.839092 105.662460
21 102.819786 23.735548 5.410294 3.150732 3.423702 -20.839094 105.662468
[eye_left_bone]
20 -24.626970 125.451866 -64.772606 0.000000 -90.000000 -99.840431 143.318359
21 -24.626970 125.451866 -64.772606 0.000000 -90.000000 -99.840431 143.318359
[eye_right_bone]
20 -24.626970 125.451866 64.327362 0.000000 -89.960434 80.159386 143.117676
21 -24.626970 125.451866 64.327362 0.000000 -89.960434 80.159386 143.117676
[L_forearm]
20 322.776093 0.000000 -0.000119 0.000075 0.002346 -86.350525 322.776093
21 322.776093 0.000000 -0.000119 0.000083 0.002346 -85.957817 322.776093
[L_front_hand]
20 241.149185 -0.042021 -3.300071 -177.739960 0.175500 -85.887405 241.171753
21 241.149185 -0.042021 -3.300071 -177.745087 0.241991 -87.577980 241.171753
[L_weapon_bone]
20 156.183838 0.000000 0.000000 0.002097 0.001055 36.595448 156.183838
21 156.183838 0.000000 0.000000 0.002088 0.001071 35.685055 156.183838
[L_front_hand01_01]
20 86.095154 20.947098 -0.655860 0.405585 -0.442306 -4.620490 88.609184
21 86.095154 20.947098 -0.655860 0.405585 -0.442306 -4.620490 88.609184
[L_front_hand02_01]
20 86.935165 -11.437475 24.513514 116.959450 3.630817 1.495453 91.046425
21 86.935165 -11.437475 24.513514 116.959450 3.630817 1.495453 91.046425
[L_front_hand03_01]
20 86.637497 -14.123976 -20.424902 -118.420097 -4.656303 -0.152527 90.126129
21 86.637497 -14.123976 -20.424902 -118.420097 -4.656303 -0.152527 90.126129
[L_front_hand01_02]
20 71.020905 -0.000179 0.000030 0.001534 0.001777 -8.378850 71.020905
21 71.020905 -0.000179 0.000030 0.001534 0.001777 -8.378850 71.020905
[L_front_hand02_02]
20 71.020927 -0.000119 0.000060 0.001534 0.001777 -8.378850 71.020927
21 71.020927 -0.000119 0.000060 0.001534 0.001777 -8.378850 71.020927
[L_front_hand03_02]
20 71.020905 -0.000060 0.000060 0.001534 0.001777 -8.378850 71.020905
21 71.020905 -0.000060 0.000060 0.001534 0.001777 -8.378850 71.020905
[R_forearm]
20 322.776428 -0.000060 0.000030 0.212995 -0.014414 -86.629097 322.776428
21 322.776428 -0.000060 0.000030 0.209268 -0.019267 -85.829636 322.776428
[R_front_hand]
20 238.847015 -0.006795 2.210259 -1.701229 -0.303187 -88.787231 238.857239
21 238.847015 -0.006795 2.210259 -1.701488 -0.302868 -88.782799 238.857239
[R_weapon_bone]
20 155.664093 0.002503 -0.000030 0.002975 0.002167 -125.740562 155.664078
21 155.664093 0.002503 -0.000030 0.003024 0.002100 -123.144951 155.664078
[R_front_hand01_01]
20 87.624611 14.231146 22.918642 -116.960213 3.496675 -1.324139 91.683487
21 87.624611 14.231146 22.918642 -116.960213 3.496675 -1.324139 91.683487
[R_front_hand02_01]
20 89.356956 14.367283 -19.491137 118.419647 -4.257089 0.609827 92.579636
21 89.356956 14.367283 -19.491137 118.419647 -4.257089 0.609827 92.579636
[R_front_hand03_01]
20 87.286232 -22.307278 -0.143439 -0.387970 -0.231462 4.232001 90.091743
21 87.286232 -22.307278 -0.143439 -0.387970 -0.231462 4.232001 90.091743
[R_front_hand01_02]
20 71.020905 0.000060 0.000119 0.001777 0.001534 8.377220 71.020905
21 71.020905 0.000060 0.000119 0.001777 0.001534 8.377220 71.020905
[R_front_hand02_02]
20 71.020844 -0.000030 -0.000119 0.001777 0.001534 8.377220 71.020836
21 71.020844 -0.000030 -0.000119 0.001777 0.001534 8.377220 71.020836
[R_front_hand03_02]
20 71.020905 0.000000 0.000030 0.001777 0.001534 8.377220 71.020905
21 71.020905 0.000000 0.000030 0.001777 0.001534 8.377220 71.020905
[null_rope01_connect]
20 328.732483 0.000000 -0.000238 129.119003 -72.946968 -52.188374 328.732483
21 328.732483 0.000000 -0.000238 131.634415 -73.777466 -53.327366 328.732483
[Rope1_Seg01]
20 0.000000 0.000000 0.000000 123.933937 21.493570 -173.504211 0.000000
21 0.000000 0.000000 0.000000 124.297668 21.645504 -172.112259 0.000000
[Rope1_Seg02]
20 139.999863 -0.000179 0.000000 2.923822 -6.868301 1.679857 139.999863
21 139.999863 -0.000179 0.000000 3.275429 -6.879244 1.351255 139.999863
[Rope1_Seg03]
20 139.999924 0.000060 -0.000060 3.563184 -15.005175 4.614515 139.999924
21 139.999924 0.000060 -0.000060 4.136850 -14.726078 3.879126 139.999924
[Rope1_Seg04]
20 139.999924 -0.000060 -0.000119 0.295110 -43.967129 5.287475 139.999924
21 139.999924 -0.000060 -0.000119 2.494754 -42.366161 3.741832 139.999924
[Rope1_Seg05]
20 139.999832 0.000119 -0.000060 -6.674417 -24.673286 32.083385 139.999832
21 139.999832 0.000119 -0.000060 -8.740037 -26.325678 27.473606 139.999832
[Rope1_Seg06]
20 139.999954 0.000119 -0.000060 95.294052 -5.812738 52.446461 139.999954
21 139.999954 0.000119 -0.000060 86.489517 -8.745908 53.214867 139.999954
[Rope1_Seg07]
20 139.999985 0.000060 0.000000 16.420433 12.915206 2.431064 139.999985
21 139.999985 0.000060 0.000000 23.523699 13.894493 5.345520 139.999985
[Rope1_Seg09]
20 121.602913 0.000119 -0.000089 -89.793175 -1.359789 0.847147 121.602913
21 121.602913 0.000119 -0.000089 -89.793175 -1.359789 0.847147 121.602913
[L_mid_hand01]
20 103.859421 1.038730 8.195221 104.352036 0.341479 -0.444583 104.187431
21 103.859421 1.038730 8.195221 104.352036 0.341479 -0.444583 104.187431
[L_mid_hand02]
20 105.572853 -4.139662 -10.864139 -135.608444 3.905687 -3.381056 106.211075
21 105.572853 -4.139662 -10.864139 -135.608444 3.905687 -3.381056 106.211075
[L_mid_hand03]
20 104.641464 17.579376 -3.913581 -18.761515 -0.324361 2.942912 106.179977
21 104.641464 17.579376 -3.913581 -18.761518 -0.324361 2.942912 106.179977
[null_rope02_connect]
20 328.732849 0.000179 -0.000119 146.905441 80.505913 -107.380806 328.732849
21 328.732849 0.000179 -0.000119 154.826752 81.033409 -100.415955 328.732849
[Rope2_Seg01]
20 0.000076 0.000111 0.000153 -59.628418 19.264681 -2.617759 0.000203
21 0.000076 0.000111 0.000153 -59.883396 19.274277 -3.830728 0.000203
[Rope2_Seg02]
20 139.999741 -0.000060 -0.000119 -3.827093 -3.564216 5.226789 139.999756
21 139.999741 -0.000060 -0.000119 -4.313123 -3.404705 5.474383 139.999756
[Rope2_Seg03]
20 140.000107 0.000030 0.000000 -5.660783 -8.141894 10.530181 140.000107
21 140.000107 0.000030 0.000000 -6.251765 -7.865988 10.927107 140.000107
[Rope2_Seg04]
20 139.999802 0.000000 -0.000060 -14.178076 -15.961123 39.088684 139.999802
21 139.999802 0.000000 -0.000060 -14.630509 -14.672495 38.723831 139.999802
[Rope2_Seg05]
20 139.999985 -0.000060 0.000119 -8.088287 -44.270073 2.691914 139.999985
21 139.999985 -0.000060 0.000119 -6.876475 -41.911045 5.921669 139.999985
[Rope2_Seg06]
20 139.999893 -0.000030 -0.000119 -34.488625 -34.627575 -34.375736 139.999893
21 139.999893 -0.000030 -0.000119 -33.466927 -37.952198 -34.391541 139.999893
[Rope2_Seg07]
20 139.999893 0.000060 -0.000060 -9.018533 -3.165912 -9.771587 139.999893
21 139.999893 0.000060 -0.000060 -9.751969 -3.899826 -10.074711 139.999893
[Rope2_Seg09]
20 121.338966 0.000089 -0.000060 33.793236 -1.359788 -0.847141 121.338966
21 121.338966 0.000089 -0.000060 33.793236 -1.359788 -0.847141 121.338966
[R_mid_hand01]
20 104.680779 11.144459 -10.335981 -47.384258 2.963522 5.452604 105.778534
21 104.680779 11.144459 -10.335981 -47.384243 2.963521 5.452602 105.778534
[R_mid_hand02]
20 104.070427 2.443552 8.231699 75.626297 -2.250001 1.111093 104.424065
21 104.070427 2.443552 8.231699 75.626297 -2.250001 1.111093 104.424065
[R_mid_hand03]
20 106.028137 -11.221827 -5.996406 -164.381927 2.495984 -6.140522 106.788818
21 106.028137 -11.221827 -5.996406 -164.381912 2.495983 -6.140520 106.788818
[spine02]
20 129.756927 0.001550 0.000119 -1.656815 -3.782848 15.923718 129.756927
21 129.756927 0.001550 0.000119 -1.599409 -3.798844 15.077988 129.756927
[spine03]
20 78.995949 0.020708 -1.168888 0.671812 5.200710 -1.487925 79.004601
21 78.985847 0.022471 -1.267557 -0.135795 5.002377 -10.628264 78.996017
[pelvis]
20 169.435242 0.051022 0.000000 -5.653049 -2.558166 10.787225 169.435257
21 169.435242 0.051022 0.000000 -5.495397 -2.511399 10.447476 169.435257
[null_rope03_connect]
20 -1.257226 -2.466202 137.391083 161.922852 -83.978981 -75.956612 137.418976
21 -1.257226 -2.466202 137.391083 168.283264 -83.866142 -72.758965 137.418976
[null_rope04_connect]
20 -1.259640 -2.480268 -137.844437 161.922852 -83.978981 -75.956612 137.872513
21 -1.259640 -2.480268 -137.844437 168.283264 -83.866142 -72.758965 137.872513
[Rope3_Seg01]
20 0.000052 0.000097 0.000000 -139.745789 41.136913 -86.103325 0.000110
21 0.000053 0.000094 0.000000 -139.398483 38.835396 -86.664291 0.000108
[Rope3_Seg02]
20 139.999924 -0.000119 0.000060 -11.484958 -20.820671 17.327084 139.999924
21 139.999924 -0.000119 0.000060 -9.794229 -21.379490 13.887817 139.999924
[Rope3_Seg03]
20 139.999924 -0.000119 0.000119 -55.761944 -59.240791 68.685852 139.999924
21 139.999924 -0.000119 0.000119 -62.955410 -66.592758 80.078484 139.999924
[Rope3_Seg04]
20 139.999924 0.000119 0.000000 -0.389124 -29.614605 10.971066 139.999924
21 139.999924 0.000119 0.000000 2.833714 -26.053307 11.520065 139.999924
[Rope3_Seg05]
20 139.999924 -0.000238 0.000060 2.134477 -35.951172 17.729815 139.999924
21 139.999924 -0.000238 0.000060 3.231314 -25.647308 16.943171 139.999924
[Rope3_Seg06]
20 139.999893 -0.000119 -0.000060 3.187752 -13.364976 7.904443 139.999893
21 139.999893 -0.000119 -0.000060 2.436548 -10.916530 8.393749 139.999893
[Rope3_Seg07]
20 139.999771 0.000060 -0.000119 2.052067 -6.069319 4.138925 139.999771
21 139.999771 0.000060 -0.000119 1.622331 -5.532360 4.713197 139.999771
[Rope3_Seg08]
20 139.999985 -0.000060 0.000000 1.152943 -2.196175 1.621981 139.999985
21 139.999985 -0.000060 0.000000 1.053027 -2.437820 2.210504 139.999985
[Rope3_Seg09]
20 90.185997 -0.000179 -0.000060 89.793228 -1.359877 -0.847183 90.185997
21 90.185997 -0.000179 -0.000060 89.793228 -1.359877 -0.847183 90.185997
[R_rear_hand01]
20 103.366196 -6.073594 -10.757982 -156.049316 6.070419 -2.795869 104.101845
21 103.366196 -6.073594 -10.757982 -156.049316 6.070419 -2.795869 104.101845
[R_rear_hand02]
20 100.509819 12.039542 -7.992327 -38.708439 1.958052 5.461187 101.543350
21 100.509819 12.039542 -7.992327 -38.708439 1.958052 5.461187 101.543350
[R_rear_hand03]
20 101.539970 5.215704 5.435467 84.307625 -2.361032 4.099037 101.819031
21 101.539970 5.215704 5.435467 84.307625 -2.361032 4.099037 101.819031
[Rope4_Seg01]
20 0.000000 0.000007 -0.000097 74.918304 56.651554 -77.226448 0.000097
21 0.000000 0.000003 -0.000094 72.642891 54.595089 -78.646919 0.000094
[Rope4_Seg02]
20 139.999985 0.000060 0.000119 3.090153 1.682225 -6.269822 139.999985
21 139.999985 0.000060 0.000119 2.721636 1.051803 -5.833499 139.999985
[Rope4_Seg03]
20 139.999924 0.000000 -0.000238 9.518883 7.749717 -50.870724 139.999924
21 139.999924 0.000000 -0.000238 8.180097 4.133025 -58.241344 139.999924
[Rope4_Seg04]
20 139.999985 0.000000 0.000119 -16.149914 -1.468368 -76.308319 139.999985
21 139.999985 0.000000 0.000119 -24.486452 -2.584374 -76.286705 139.999985
[Rope4_Seg05]
20 139.999802 -0.000060 -0.000119 -14.949802 12.268982 -23.712069 139.999802
21 139.999802 -0.000060 -0.000119 -9.833652 12.358675 -13.200545 139.999802
[Rope4_Seg06]
20 139.999924 0.000000 0.000060 -4.873263 6.976655 -9.002572 139.999924
21 139.999924 0.000000 0.000060 -3.083015 5.589166 -5.401227 139.999924
[Rope4_Seg07]
20 139.999802 0.000000 0.000000 -1.920906 3.698943 -4.178772 139.999802
21 139.999802 0.000000 0.000000 -1.353332 3.159777 -2.831493 139.999802
[Rope4_Seg08]
20 139.999924 0.000000 0.000119 -2.431089 2.029238 -2.149176 139.999924
21 139.999924 0.000000 0.000119 -2.199001 1.792843 -1.531786 139.999924
[Rope4_Seg09]
20 90.185791 0.000060 0.000060 -135.617828 2.228885 0.850567 90.185791
21 90.185791 0.000060 0.000060 -135.617828 2.228885 0.850567 90.185791
[L_rear_hand01]
20 101.696655 -8.392275 -7.654577 -38.746349 0.246096 177.290207 102.329041
21 101.696655 -8.392275 -7.654577 -38.746349 0.246096 177.290207 102.329041
[L_rear_hand02]
20 102.726799 -1.568258 5.773216 84.315163 -1.142796 176.247437 102.900848
21 102.726799 -1.568258 5.773216 84.315163 -1.142796 176.247437 102.900848
[L_rear_hand03]
20 104.552910 9.721220 -10.420293 -155.747955 -4.630845 179.564758 105.519653
21 104.552910 9.721220 -10.420293 -155.747955 -4.630845 179.564758 105.519653
